<svg width="468" height="102" viewBox="0 0 468 102" fill="none" xmlns="http://www.w3.org/2000/svg">
<line x1="5" y1="2.18557e-07" x2="5" y2="100" stroke="black" stroke-width="10"/>
<line x1="100" y1="95" y2="95" stroke="black" stroke-width="10"/>
<line x1="3.52513" y1="97.2358" x2="67.1647" y2="33.5962" stroke="black" stroke-width="7"/>
<path d="M8 3.1279C28.3628 1.95976 54.7114 8.44637 67 37" stroke="black" stroke-width="5"/>
<path d="M96.8834 95C97.9485 74.292 92.0342 47.4968 66 35" stroke="black" stroke-width="5"/>
<path d="M177.22 63.6364C177.22 71.5672 175.717 78.3144 172.71 83.8778C169.727 89.4413 165.655 93.6908 160.494 96.6264C155.357 99.5384 149.58 100.994 143.164 100.994C136.701 100.994 130.901 99.5265 125.764 96.5909C120.627 93.6553 116.566 89.4058 113.583 83.8423C110.6 78.2789 109.109 71.5436 109.109 63.6364C109.109 55.7055 110.6 48.9583 113.583 43.3949C116.566 37.8314 120.627 33.5937 125.764 30.6818C130.901 27.7462 136.701 26.2784 143.164 26.2784C149.58 26.2784 155.357 27.7462 160.494 30.6818C165.655 33.5937 169.727 37.8314 172.71 43.3949C175.717 48.9583 177.22 55.7055 177.22 63.6364ZM161.63 63.6364C161.63 58.4991 160.861 54.1667 159.322 50.6392C157.807 47.1117 155.664 44.4366 152.895 42.6136C150.125 40.7907 146.881 39.8793 143.164 39.8793C139.448 39.8793 136.204 40.7907 133.434 42.6136C130.664 44.4366 128.51 47.1117 126.971 50.6392C125.456 54.1667 124.699 58.4991 124.699 63.6364C124.699 68.7737 125.456 73.1061 126.971 76.6335C128.51 80.161 130.664 82.8362 133.434 84.6591C136.204 86.482 139.448 87.3935 143.164 87.3935C146.881 87.3935 150.125 86.482 152.895 84.6591C155.664 82.8362 157.807 80.161 159.322 76.6335C160.861 73.1061 161.63 68.7737 161.63 63.6364ZM255.442 63.6364C255.442 71.5672 253.939 78.3144 250.933 83.8778C247.95 89.4413 243.878 93.6908 238.717 96.6264C233.579 99.5384 227.803 100.994 221.387 100.994C214.924 100.994 209.124 99.5265 203.987 96.5909C198.849 93.6553 194.789 89.4058 191.806 83.8423C188.823 78.2789 187.332 71.5436 187.332 63.6364C187.332 55.7055 188.823 48.9583 191.806 43.3949C194.789 37.8314 198.849 33.5937 203.987 30.6818C209.124 27.7462 214.924 26.2784 221.387 26.2784C227.803 26.2784 233.579 27.7462 238.717 30.6818C243.878 33.5937 247.95 37.8314 250.933 43.3949C253.939 48.9583 255.442 55.7055 255.442 63.6364ZM239.853 63.6364C239.853 58.4991 239.084 54.1667 237.545 50.6392C236.03 47.1117 233.887 44.4366 231.117 42.6136C228.347 40.7907 225.104 39.8793 221.387 39.8793C217.67 39.8793 214.427 40.7907 211.657 42.6136C208.887 44.4366 206.733 47.1117 205.194 50.6392C203.679 54.1667 202.921 58.4991 202.921 63.6364C202.921 68.7737 203.679 73.1061 205.194 76.6335C206.733 80.161 208.887 82.8362 211.657 84.6591C214.427 86.482 217.67 87.3935 221.387 87.3935C225.104 87.3935 228.347 86.482 231.117 84.6591C233.887 82.8362 236.03 80.161 237.545 76.6335C239.084 73.1061 239.853 68.7737 239.853 63.6364ZM266.833 100V27.2727H282.209V59.3395H283.168L309.34 27.2727H327.77L300.782 59.8366L328.09 100H309.695L289.773 70.0994L282.209 79.3324V100H266.833ZM380.7 27.2727H396.076V74.5028C396.076 79.8059 394.81 84.446 392.277 88.4233C389.767 92.4006 386.252 95.5019 381.73 97.7273C377.208 99.929 371.94 101.03 365.927 101.03C359.89 101.03 354.611 99.929 350.089 97.7273C345.567 95.5019 342.052 92.4006 339.542 88.4233C337.033 84.446 335.778 79.8059 335.778 74.5028V27.2727H351.154V73.1889C351.154 75.9588 351.758 78.4209 352.966 80.5753C354.197 82.7296 355.925 84.4223 358.15 85.6534C360.376 86.8845 362.968 87.5 365.927 87.5C368.91 87.5 371.502 86.8845 373.704 85.6534C375.93 84.4223 377.646 82.7296 378.853 80.5753C380.084 78.4209 380.7 75.9588 380.7 73.1889V27.2727ZM448.18 48.1889C447.896 45.3243 446.677 43.099 444.523 41.5128C442.368 39.9266 439.445 39.1335 435.751 39.1335C433.242 39.1335 431.123 39.4886 429.395 40.1989C427.667 40.8854 426.341 41.8442 425.418 43.0753C424.518 44.3063 424.068 45.7031 424.068 47.2656C424.021 48.5677 424.293 49.7041 424.885 50.6747C425.5 51.6454 426.341 52.4858 427.406 53.196C428.472 53.8826 429.703 54.4863 431.099 55.0071C432.496 55.5043 433.988 55.9304 435.574 56.2855L442.108 57.848C445.28 58.5582 448.192 59.5052 450.844 60.6889C453.495 61.8726 455.792 63.3286 457.733 65.0568C459.674 66.785 461.178 68.821 462.243 71.1648C463.332 73.5085 463.888 76.1955 463.912 79.2259C463.888 83.6766 462.752 87.5355 460.503 90.8026C458.277 94.0459 455.058 96.5672 450.844 98.3665C446.653 100.142 441.599 101.03 435.68 101.03C429.809 101.03 424.696 100.13 420.339 98.331C416.007 96.5317 412.622 93.8684 410.183 90.3409C407.768 86.7898 406.502 82.3982 406.384 77.1662H421.263C421.429 79.6046 422.127 81.6406 423.358 83.2741C424.613 84.884 426.282 86.1032 428.365 86.9318C430.472 87.7367 432.851 88.1392 435.503 88.1392C438.107 88.1392 440.368 87.7604 442.286 87.0028C444.227 86.2453 445.73 85.1918 446.795 83.8423C447.861 82.4929 448.393 80.9422 448.393 79.1903C448.393 77.5568 447.908 76.1837 446.938 75.071C445.991 73.9583 444.594 73.0114 442.747 72.2301C440.924 71.4489 438.687 70.7386 436.036 70.0994L428.116 68.1108C421.985 66.6193 417.143 64.2874 413.592 61.1151C410.041 57.9427 408.277 53.6695 408.301 48.2955C408.277 43.892 409.449 40.045 411.817 36.7543C414.208 33.4635 417.487 30.8949 421.653 29.0483C425.82 27.2017 430.555 26.2784 435.858 26.2784C441.256 26.2784 445.967 27.2017 449.991 29.0483C454.04 30.8949 457.188 33.4635 459.438 36.7543C461.687 40.045 462.847 43.8565 462.918 48.1889H448.18Z" fill="black"/>
</svg>
